<svg height="13.1" width="178.95" xmlns="http://www.w3.org/2000/svg"><g fill-rule="evenodd" transform="translate(89.45 6.55)"><path d="m-89.45 3.65h1.45v-7.3h-1.45zm13.1-5.85v5.85h1.45v-7.3h-11.65v7.3h1.45v-5.85zm13.1 5.85v1.45h-10.2v1.45h11.6v-10.2h-11.6v7.3zm-8.75-5.85h8.75v4.4h-8.75zm21.8 0v1.5h-8.7v-1.5zm1.45 5.85v-1.5h-10.15v-1.4h10.15v-4.4h-11.6v7.3zm11.65 0h1.45v-7.3h-11.65v7.3h1.45v-5.85h8.75zm2.9 0h1.45v-7.3h-1.45zm13.05-5.85v1.5h-8.7v-1.5zm1.45 5.85v-1.5h-10.15v-1.4h10.15v-4.4h-11.6v7.3zm13.1-5.85v-1.45h-11.6v7.3h1.45v-5.85zm1.5 5.85h1.45v-7.3h-1.45zm13.3-1.45h-8.7v-1.45h8.7zm1.45 1.45v-7.3h-11.6v1.45h10.15v1.5h-10.15v4.35z" fill="#8f8f8c"/><path d="m21.2-2.2v5.85h1.45v-7.25h-10.15v-2.95h-1.45v10.2h1.45v-5.85zm14.55-1.45h-1.45v5.85h-8.75v-5.85h-1.45v7.3h11.65zm14.5 7.3v-7.3h-13.05v7.3h1.45v-5.85h4.35v5.85h1.45v-5.85h4.35v5.85zm11.65-5.85v1.5h-10.15v4.35h11.6v-7.3h-11.6v1.45zm0 2.95v1.45h-8.75v-1.45zm13.05-2.95v5.85h1.45v-7.3h-11.6v7.3h1.45v-5.85zm13.1 4.4h-8.7v-1.45h8.7zm1.45 1.45v-7.3h-11.6v1.45h10.15v1.5h-10.15v4.35z" fill="#e60d2e"/></g></svg>