<svg height="38.6" width="134.25" xmlns="http://www.w3.org/2000/svg"><g fill-rule="evenodd" transform="translate(67.1 19.3)"><path d="m5.2 1.25 10.45-4.9-14.7.25-9.1 3.95z" fill="#e60d2e"/><path d="m-11.7 1.05-.35-.05.25-.15q-.15.15.1.2m-1.65.25h-.15l.25-.4q.25.05-.1.4m3.05 10.75h.05l.05-.1-.1.1q-.85.25.5-.4l.6-.1-.2.2.3-.1.1-.45.45-.15-.25.25.3-.05.45-.15.4-.2.6-.35h-.25l-.3.2q-.25-.05.25-.35l.7-.3q.3 0 .4-.2l.3-.05.4-.25q-.2.3.15.2v-.25l.1-.25q.25-.1.25.1v.25l.55-.4q-.35.1 0-.25l.2-.05.1.1q.6-.4.05-.3l.3-.2.4-.2-.15.2-.1.1.35-.35.25-.35q-.6.1.1-.45.3-.15.15 0l.1.1q.25 0 0 .3-.15.25.1.2l.1.2.25-.2.15-.15.25-.25.4-.25.05.15.1.1.1-.1.2-.1q2.1-.9 3.05-1.85l1.15-.25q-1.35.25.05-.2h.3q.55-.3 1.05-.55l.3-.25.25-.05h.75q.75-.2 1.25 0l1 .2.45-.1h2.6l1.5-.1h1.6 1.1l.8.05 1.6-.3-.1.3 7.4.15 2.1.05 1.8-.1.35-.25.55.4q.25-.15 1.35 0l1.8-.05q6.55 1.25 9.8.75l.5.1q0 .2.15.2l4.25.1 4.1-.1q1.9-.1 2.55-.8l-13.3-1.15-4.95-.2-8.95-.7-9.1-.5q1.55.45-.4.2l-.5.15q-.2 0-.25-.15l.4-.1-.85-.1-5.5-.15-1.1-.25 1.7-.75-.05-.15.25-.3.3-.05.3.1.5-.3 5.05-2.8.4-.2 3.55-1.9 2.2-.1 1.25-.1h.85q1.55-.1 1.65-.4l-.05.4 8.05-.45q.15.05-.1.15h2.25l1.9-.3.4-.25.3.2.3.2.8-.15q.6 0 .7-.15l-.05.2 1.95-.1q7.25.85 10.55.2l.5.1.2.2 4.55-.15 4.4-.35q2.05-.15 2.7-1l-14.3-.45-5.35.05q-2.7.05-9.7-.2l-9.75-.05.1.15-.5.05-.55.2q-.2 0-.25-.1l.4-.15-.9-.05.95-.55q3.85-1.25 5.4-2.5l.3-.05.15.05q.6-.45 2.25-1.2l2.15-1.25q1-.6 1.1-1.2-2.55 1.45-7.35 3.3l-7 3.35-3.85.2-3.1-.2h-3.25l-.25.1-.15.15-.25-.15.05-.1-3.8-.05-.3.1-.1.15-1.3-.15 4.05-1.85.95-.65.05.25 4.75-2.05 1.35-.55q.85-.25 1.1-.55l.2-.25.45.05.9-.35.6-.35.5-.2q4.4-1 6.5-2.35l.35-.05.15.1 2.75-1.2q1.85-.65 2.6-1.2 1.2-.6 1.4-1.25-3.55 1.6-8.85 3.05-2.15 1.05-3.2 1.3l-5.95 2.1-5.95 2.3.1.05-.3.15-.3.25h-.2l.25-.2-8.05 3.05-.35.1-1.25.45-3.1-.05-1.55.25-1.05-.15h-1.25q.15.2-.4.35l-1.1.05.25-.4q-.9.1-4.1.05l-4.4.25-.2-.25-4.25.15-4.1.3-2.65-.2-2.05.5-.75-.25-1.8-.2h-1.65l-3.55.2-.75.25q-.5.1-.2.25-.2 0-.35-.15h-.35l.4-.3-7.05.25-1.6-.15-4.95.15-3.95-.1-1.5.15-1.2.6-1.15-.1 1.35-.6-1.25.1q-.75.15-1.05 0l-1.35.2q-.4-.1-.1-.2l-1.2.15h.35l-.5.2-.2.3.65-.1-.6.2-.7-.1.2-.3q.25-.15 0-.2l-1.35.45q.9-.15.5.25l.6.1 2.75-.05-.4-.2.9-.1.85.05-.05.3.45-.1-.2.3.95-.2.8.1.35-.05q-.2-.2.1-.2.3.05.35.25l.35.3h3.5l2.45-.35.35.15.35.05.1.4.65-.1q.45-.05.15-.2l3.35.05-.3.15.15.2 2.35-.3-.15-.25-.05-.25.6-.1q.4.65.95.65l-.75.15q-.5 0-.3.2l-1.15.25-1.1-.1q-.35.15 0 .15.55 0 .45.2l2.05-.25-.1-.2.25-.15q.55-.2.95 0l.45.3-.5.05h.75l.75-.1q.1.25-.5.25l-.8.1.5.3.6-.1.6.05.65-.1q0-.45-.7-.4l.5-.2.9.05-.1-.15-.3-.1.95-.25.5.15.2.3-.65-.1q-.5.15-.2.4.25.25-.05.3l.65-.05.35-.2v-.15-.15l.95-.05q.45.45.95.4l.55-.5q.55-.3.1-.55l.9-.15q-.15.15.1.25.2.1-.1.25h.4l-.6.35 1.45.55.2-.2q-.05-.15.3-.15-.4.25.5.25-.4-.05-.15-.25l.55-.2 1 .3-.5.2.25.05.3.05.6-.65.5.05.3.05-.65.2q.4-.05.55.2l.5.15.35-.1.8.05 1.2-.15-.4-.15h-.6q-.25-.2.15-.25l.55-.05q-.05.25.5.15l.85-.1.6.25.15-.25q.1.3.55.15l.75-.1q-.45.25.15.45-.25-.25.2-.45l.4-.3q.5.1.25.35l-.2.4.65-.05.6-.15q-.4-.05-.2-.2l.4-.2.3.1.15.2.4-.2-.2-.25 1.5-.05q.1.15-.35.15l-.3.15q.55 0 .8-.3.25-.35.75-.35-.3-.1-.15-.35l.6-.35q.55.05.2.15-.45.15-.25.3l.45-.05q.3.2-.35.5-.7.35-.4.5l.5-.15-.05.45 1.2-.15-.15-.05-.2-.05.7-.25.85-.05-.1.2.1.25q.2.05.25-.1l.35.1 6.35-.6 1.65.4-.4.3-.5.25-.65.15-.75.3q.45.3-.85.55l.05-.25-8.35 3.35q-3.65-.2-5.05-.05l-.2-.2-3.9-.1-3.85.1-2.45-.35-1.9.4-.7-.3-3.25-.35q-2.05.35-3.3.05l-.7.15q-.4.1-.15.25l-.35-.15h-.35l.4-.25-6.55-.15-1.5-.2-1.95-.1-6.3-.3-2.7.15.4-.25-1.2.05-.95-.05-1.3.15q-.35-.15-.05-.2l-1.15.05.35.05-.65.4.6-.05-.6.15-.65-.15.2-.2q.25-.15.05-.2l-1.3.35q.85-.15.45.25l.55.1 2.55.1-.35-.2h1.65q-.25.1-.1.3l.45-.05-.2.25.9-.15.75.15.3-.05q-.15-.15.1-.15.25.05.3.25l.3.3 3.3.15 2.3-.2q.35 0 .3.2l.3.05.1.35.6-.05q.4 0 .1-.2l3.15.2q-.85 0-.15.35l.3.05.25.15h-.2q-.35.15 0 .2.45.05.4.2l1.9-.15.15-.3.25-.1h.2q.25 0 .45.15l.4.25-.45.05.7.05.7-.05q.1.25-.45.2l-.75.05.4.3.6-.1.5.1.65-.05q0-.4-.65-.4l.5-.2.8.1q.15-.1-.05-.1l-.3-.1.9-.2q.35 0 .45.15l.15.25-.55-.1q-.45.1-.25.35.25.25 0 .3l.9-.15v-.15-.2l.9.05q.4.4.85.4-.1-.2.3-.1l.55.1q.2.45.4-.05l.15-.15 1.2.5.25-.15q-.05-.15.25-.15-.4.3.45.3-1-.3.4-.45.55.05.9.4l-.4.15q.1-.05.15.05l.3.05.55-.55.75.1-.6.15q.4 0 .5.2l.45.15.35-.05.75.1 1.1-.1q-.15-.2-.4-.15l-.55-.05q-.3-.25.7-.25-.05.25.45.2l.8-.1.55.3.15-.2q.05.25.5.15l.7-.05q-.45.2.1.4-.2-.25.2-.4.45-.15.4-.25.45.1.25.3l-.2.4.6-.05.55-.1-.15-.15.35-.2q.4.05.3.15l.1.15.4-.15q.1-.2-.15-.25l.65-.05.7.1-.35.1-.25.1.75-.2q.25-.3.7-.3-.7-.25.45-.65.55.1.2.15-.45.15-.25.3l.4-.05q.3.2-.35.45-.6.3-.35.45l.45-.1q-.25.3-.1.4l.7-.1-1.4.45q-1.35.85-2.1.95l-.4.3-.05.2-.25.05-.25.05.2-.25-4.25 1.8-6.4 2.35-.9.45-.55.65-.75.2.7-.65-1.35.6-.9.3-.55.3h.05l-.25.25-.05.25.4-.25-.35.3-.45.05.05-.2q.1-.15-.05-.1l-.7.6q.45-.3.35 0l.4-.1 1.65-.65-.3-.05 1.1-.2.25-.2-.05.25q.15-.3 1.05-.5.3-.05.2-.1l.05-.1.25.05.25.1 1-.45 1.15-.35 1.4-.8h.25l.25-.05.15.4.5-.1.15.1q.2-.2-.65-.2.8-.3.4-.35l2.05-.75q-.5.25 0 .25l1.35-.75q0-.1-.15-.1l-.1-.15.35-.2.7.15q0 .15-.4.3l-.15.2q-.35.6-1.3.6-.2.15.05.1.3-.15.3 0l1.2-.6v-.25q.3-.3.55-.25l.35.05-.25.2.9-.4-.25.25-.5.25.4.05.35-.2.35-.1.35-.25-.5-.05.8-.4q.1-.15-.05-.05h-.25l.55-.4.5.1-.4.1-.05.3q.2.1.05.2.4-.1.45-.6.3-.35.6-.2h.65l.25-.45q.3-.3-.05-.35l.5-.3.1.15q.15 0 0 .15l.25-.1-.3.35h1.05l.05-.2.15-.15.4.05q-.2.05-.2-.1l.3-.25.7-.05-.25.25.15-.05.2-.05.2-.5.5-.15-.35.25h.4l.55-.15.45-.15.7-.4h-.25l-.4.15q-.3-.05.4-.35l.5-.1 4.3-.35 1.75.45q-.9-.2.3-.2l.45.3 1.95.05h.45l.25-.2.4.05q1.25-.25 1.05.3.4-.1.15-.2l2.75.2-.4-.35.2-.1h.35q.4.25-.05.3l2.05.3 2.3.1q.2-.1.35-.15l1.95.2-.5.25v-.25l-8.5 4.45-1.4.55-.9.75-.45.05-1.8.8q-1.25.85-1.75.95l-.3.3-.05.2h-.2l-.2.1.15-.25-6.15 3.1-.65.4-2.05.9-.4.2-.35.25-.4.6-.65.2.55-.6-1.15.6-.7.35-.4.3-.25.4.3-.2q0 .4-.65.4l.05-.2q.1-.15-.05-.1l-.5.55h.25l.3-.1 1.4-.7h-.25l.45-.3.4-.15.25.2q.1-.3.85-.5l.2-.1v-.1l.25.05.2.05 1.8-.9 1.15-.75h.2q.05.05.2-.1l.2.35.5-.05-.55-.1q.7-.35.3-.35l1.75-.85q-.35.25 0 .25.35-.45 1.1-.75-.2 0-.2-.15l.25-.25.65.1-.35.3-.1.15-.5.4-.6.2q-.15.2.05.1h.25l1-.85.55-.05.7-.4-.2.25-.35.25h.3l.3-.2.3-.1.3-.25q-.15-.15-.45 0l.7-.4q.05-.1-.1-.05h-.2q.25-.25.45-.35l.3-.05.15.1-.35.1-.05.25q.25 0 .1.15.3-.05.35-.5.25-.35.5-.25l.55-.05.2-.4q.2-.25-.1-.3l.4-.3.15.1.2.05-.25.35.9-.1.05-.15zm17.05-10.35h-1.65q-.2 0-.25.1l-.15.1-.2-.1v-.15l-3.5-.2q-.45.15-.4.2l-2.3-.2-2.35-.2q.25.3-.3.3h-1.05l-.25-.25-2.85-.2-1.45.15-1.6-.2.25-.05q2.85-1.15 3.75-1.85l1.25-.2q-.25.05.1-.25l.4.05 1.25-.5q.35 0 .4-.3l.25-.1.8-.3q.6 0 1.8-.65l-.35-.1.1-.1.25-.1q.3.05.05.2l2.1-.7.2-.1 2.9.1-.45-.4.2-.1h.4q.45.25-.05.3l2.2.25 2.45-.05.4-.2 1.65.1h1.7q-.2-.1.05-.3l.65-.2q.35-.15.45.1l.4.45 1.1-.1 1.3-.1 1.15.15.4-.15.85-.05-.25.2-.2.2h-.15l.15-.15-.5.2-8.45 4.1-.1.2zm-55.2-5.85-.05.3.7.1v.1l.15.15q.45-.25-.8-.65m-4 6q.45-.25-.7-.65l-.1.25.7.15q-.25.2.1.25" fill="#8f8f8c"/></g></svg>