<svg height="780" preserveAspectRatio="none" viewBox="0 0 1000 650" width="1200" xmlns="http://www.w3.org/2000/svg" xmlns:xlink="http://www.w3.org/1999/xlink"><filter id="a" color-interpolation-filters="sRGB" height="140%" width="140%" x="-20%" y="-20%"><feColorMatrix in="SourceGraphic" result="result1" type="matrix" values="1 0 0 0 0 0 1 0 0 0 0 0 1 0 0 0 0 0 0 0"/></filter><g transform="translate(-328.7 129.25)"><g filter="url(#a)"><path d="m521.55 391.4-3.35 1.6q-.5.4-1.1.6-.5-.15-1.6.35-1.4.65-1.8.7.3.2-.4.7-.7.5-1.55.7l.15-.7q-1.55.8-5.9 2.3-4.4 1.5-6.5 2.55-1.1.55-7.35 3.1l-1.5.45-12.5 5.25q-2.45.75-3.2 1.1-3.15 2-5 2.3l-.95.7q-.6.4-.1.45-.25.15-.6.05-.25-.1-.5.2l.45-.65q-3.6 1.3-10 4.2-.65-.05-2.35.7-2.1.95-3 1.15-.5.35-2.1.9-1.5.5-1.9.85l-5.75 2q-.6.2-1.1.6-.45.3-.95.45-.7.4-1.35 1.55l-1.75.45q1.05-.7 1.6-1.6-.55.15-1.75.9-.95.6-1.45.5l-2.1.8q-1.35.6-1.65.9l.55-.2-.6.6q-.35.3-.15.5.6-.4.9-.5-.05.3-.8.65-.7.3-1.05.2-.25-.1.1-.5.25-.35-.05-.3l-1.7 1.4.6-.2q.3.05.25.25l.9-.2 1.95-.7q1.15-.35 1.95-.85l-.7-.1 1.25-.6q.7-.3 1.35.05l.6-.4-.15.55q.2-.45 1.3-.8l1.2-.35q.7-.15.45-.25-.35-.15.05-.3.4-.1.65.15.25.3.65.3l2.4-1.15q1.6-.7 2.6-.8l3.35-1.9q.5-.2.55.05.05.2.55-.1 0 .2.1.3l.3.65q1-.15 1.1-.25.15 0 .1.2 0 .15.25.05.6-.65-1.5-.45l.85-.5q.7-.3.1-.4 2.85-.8 4.85-1.8l-.4.4q0 .25.4.25.95-1.05 3.2-1.75l-.35-.25q-.25-.1-.25-.3.6-.45.8-.5l.55.45q.4.25 1.15-.05-.05.35-1 .65-.7.25-.3.4-.25.45-1.5 1-1.15.55-1.65.45-.45.45.15.25.75-.25.7 0l2.8-1.45q-.05-.15-.25-.2-.05-.15.25-.35.7-.65 1.4-.55l.75.15-.6.4 2.1-1q.25.3-.6.6-1 .35-1.05.6l.85.2q.7-.25.8-.55.1-.2.85-.25l.85-.5q-.1-.6-1.2-.15.15-.5.6-.6.9-.2 1.3-.4.15-.25-.15-.1-.4.2-.5 0-.2-.2 1.2-.9.6-.25.8-.05.3.3.4.3-.95.65-.95.25-.6.45-.1.65.5.2.15.45.7-.1.85-.45l.25-.9q.7-.85 1.35-.55.85.4 1.55.05-.25-.2.55-1.05.65-.75-.15-.85.65-.55 1.25-.7-.15.3.25.35.3.05-.05.4l.6-.25-.7.85 2.4-.05q.4-.25.2-.4-.1-.15.35-.35-.35.5.85.1-.65.15-.4-.25l.7-.65 1.15-.25q.3 0 .45.15l-.55.55q.2-.15.35-.1.2.05.45-.1l.5-1.15.7-.25.5-.05-.8.6q.5-.25.9-.05.35.15 1.25-.35.3-.4 1.15-.4 1.1-1 1.65-.85-.4-.2-.7 0-.45.25-.85.3-.45-.1.1-.4.3-.2.75-.4.1.35 1.3-.35l15.8-5.75q.25-.35.6-.25 6.3-2.25 8.75-4.3.34628906.09882813 2.95-.5-.8609375.178125.35-.5l.85.1q.55-.05 1.45-.55l1.5-.65q.5-.05.7-.3l.3-.45.6-.2q1.4-.9 1.9-.65 1.55-.1 4.25-1.55-.6.15-.85-.25 0-.3.25-.3.3 0 .5-.2l.35.15q.2.1-.15.3 1.25-.05 4.9-1.6l.45-.2 13.75-5.65 1.75-.55.8-.5 2.1-.9q.3-.45 2.3-1.2 2.1-.75 2.35-1 .6-.1 1.7-.85.85-.6 1.2-.45 2.1-1.05 2.15-1.5.4.05.15.55l11.2-4.8q.8-.5 3.2-1.25 1.95-.55 2.6-1.4l.4-.6 1.05.2 2.1-.9q.45-.15 1.4-.75.85-.5 1.25-.5 10.55-2.5 15.3-5.5.55-.3.75-.1.2.25.35.15 1.7-1 6.5-2.7 4.3-1.55 6.1-2.9 2.85-1.4 3.3-2.95-7.25 3.35-20.75 7.25-5.85 2.5-7.65 3-3.9 1.55-13.9 5-9 3.1-14.05 5.3.4-.05.2.2l-.7.35-.6.55q-.5.2-.45 0l.45-.45-1.35.4q-5.85 2.3-8.35 3.5-1.05.45-4.5 1.45-3 .9-4.65 1.75-.25.15-.35.3-.1.05-.55.05-.99492187.7046875-2.4.9l-2.65 1.8-5.6 1.55zm-23.35 12.1v-.45q.8-.25.55-.05zm.15.85.6-.95q.55.1-.25 1zm2.95-.6q.4-.4 1.1-.5-.25.2.2.5l-.95-.1q.3.5-1.05.75z" fill="#8f8f8c"/></g><path d="m521.55 391.4 6.9-2.65 5.6-1.55 2.675-1.775m12.125-.225-.8.5-1.75.55-13.75 5.65m-29.65 11.9-15.8 5.75m-8.95-.55 12.5-5.25 1.5-.45" style="stroke:#fff;stroke-width:.05;stroke-linejoin:round;stroke-linecap:round;fill:none;filter:url(#a)"/></g></svg>