<svg height="780" preserveAspectRatio="none" viewBox="0 0 1000 650" width="1200" xmlns="http://www.w3.org/2000/svg" xmlns:xlink="http://www.w3.org/1999/xlink"><filter id="a" color-interpolation-filters="sRGB" height="140%" width="140%" x="-20%" y="-20%"><feColorMatrix in="SourceGraphic" result="result1" type="matrix" values="1 0 0 0 0 0 1 0 0 0 0 0 1 0 0 0 0 0 0.7 0"/></filter><filter id="b" color-interpolation-filters="sRGB" height="140%" width="140%" x="-20%" y="-20%"><feColorMatrix in="SourceGraphic" result="result1" type="matrix" values="1 0 0 0 0 0 1 0 0 0 0 0 1 0 0 0 0 0 0.1 0"/></filter><filter id="c" color-interpolation-filters="sRGB" height="140%" width="140%" x="-20%" y="-20%"><feColorMatrix in="SourceGraphic" result="result1" type="matrix" values="1 0 0 0 0 0 1 0 0 0 0 0 1 0 0 0 0 0 0.4 0"/></filter><g transform="translate(-98.6 38.8)"><g filter="url(#a)"><path d="m521.55 391.4-3.35 1.6q-.5.4-1.1.6-.5-.15-1.6.35-1.4.65-1.8.7.3.2-.4.7-.7.5-1.55.7l.15-.7q-1.55.8-5.9 2.3-4.4 1.5-6.5 2.55-1.1.55-7.35 3.1l-1.5.45-12.5 5.25q-2.45.75-3.2 1.1-3.15 2-5 2.3l-.95.7q-.6.4-.1.45-.25.15-.6.05-.25-.1-.5.2l.45-.65q-3.6 1.3-10 4.2-.65-.05-2.35.7-2.1.95-3 1.15-.5.35-2.1.9-1.5.5-1.9.85l-5.75 2q-.6.2-1.1.6-.45.3-.95.45-.7.4-1.35 1.55l-1.75.45q1.05-.7 1.6-1.6-.55.15-1.75.9-.95.6-1.45.5l-2.1.8q-1.35.6-1.65.9l.55-.2-.6.6q-.35.3-.15.5.6-.4.9-.5-.05.3-.8.65-.7.3-1.05.2-.25-.1.1-.5.25-.35-.05-.3l-1.7 1.4.6-.2q.3.05.25.25l.9-.2 1.95-.7q1.15-.35 1.95-.85l-.7-.1 1.25-.6q.7-.3 1.35.05l.6-.4-.15.55q.2-.45 1.3-.8l1.2-.35q.7-.15.45-.25-.35-.15.05-.3.4-.1.65.15.25.3.65.3l2.4-1.15q1.6-.7 2.6-.8l3.35-1.9q.5-.2.55.05.05.2.55-.1 0 .2.1.3l.3.65q1-.15 1.1-.25.15 0 .1.2 0 .15.25.05.6-.65-1.5-.45l.85-.5q.7-.3.1-.4 2.85-.8 4.85-1.8l-.4.4q0 .25.4.25.95-1.05 3.2-1.75l-.35-.25q-.25-.1-.25-.3.6-.45.8-.5l.55.45q.4.25 1.15-.05-.05.35-1 .65-.7.25-.3.4-.25.45-1.5 1-1.15.55-1.65.45-.45.45.15.25.75-.25.7 0l2.8-1.45q-.05-.15-.25-.2-.05-.15.25-.35.7-.65 1.4-.55l.75.15-.6.4 2.1-1q.25.3-.6.6-1 .35-1.05.6l.85.2q.7-.25.8-.55.1-.2.85-.25l.85-.5q-.1-.6-1.2-.15.15-.5.6-.6.9-.2 1.3-.4.15-.25-.15-.1-.4.2-.5 0-.2-.2 1.2-.9.6-.25.8-.05.3.3.4.3-.95.65-.95.25-.6.45-.1.65.5.2.15.45.7-.1.85-.45l.25-.9q.7-.85 1.35-.55.85.4 1.55.05-.25-.2.55-1.05.65-.75-.15-.85.65-.55 1.25-.7-.15.3.25.35.3.05-.05.4l.6-.25-.7.85 2.4-.05q.4-.25.2-.4-.1-.15.35-.35-.35.5.85.1-.65.15-.4-.25l.7-.65 1.15-.25q.3 0 .45.15l-.55.55q.2-.15.35-.1.2.05.45-.1l.5-1.15.7-.25.5-.05-.8.6q.5-.25.9-.05.35.15 1.25-.35.3-.4 1.15-.4 1.1-1 1.65-.85-.4-.2-.7 0-.45.25-.85.3-.45-.1.1-.4.3-.2.75-.4.1.35 1.3-.35l15.8-5.75q.25-.35.6-.25 6.3-2.25 8.75-4.3.34628906.09882813 2.95-.5-.8609375.178125.35-.5l.85.1q.55-.05 1.45-.55l1.5-.65q.5-.05.7-.3l.3-.45.6-.2q1.4-.9 1.9-.65 1.55-.1 4.25-1.55-.6.15-.85-.25 0-.3.25-.3.3 0 .5-.2l.35.15q.2.1-.15.3 1.25-.05 4.9-1.6l.45-.2 13.75-5.65 1.75-.55.8-.5 2.1-.9q.3-.45 2.3-1.2 2.1-.75 2.35-1 .6-.1 1.7-.85.85-.6 1.2-.45 2.1-1.05 2.15-1.5.4.05.15.55l11.2-4.8q.8-.5 3.2-1.25 1.95-.55 2.6-1.4l.4-.6 1.05.2 2.1-.9q.45-.15 1.4-.75.85-.5 1.25-.5 10.55-2.5 15.3-5.5.55-.3.75-.1.2.25.35.15 1.7-1 6.5-2.7 4.3-1.55 6.1-2.9 2.85-1.4 3.3-2.95-7.25 3.35-20.75 7.25-5.85 2.5-7.65 3-3.9 1.55-13.9 5-9 3.1-14.05 5.3.4-.05.2.2l-.7.35-.6.55q-.5.2-.45 0l.45-.45-1.35.4q-5.85 2.3-8.35 3.5-1.05.45-4.5 1.45-3 .9-4.65 1.75-.25.15-.35.3-.1.05-.55.05-.99492187.7046875-2.4.9l-2.65 1.8-5.6 1.55zm-23.35 12.1v-.45q.8-.25.55-.05zm.15.85.6-.95q.55.1-.25 1zm2.95-.6q.4-.4 1.1-.5-.25.2.2.5l-.95-.1q.3.5-1.05.75z" fill="#8f8f8c"/></g><path d="m521.55 391.4 6.9-2.65 5.6-1.55 2.675-1.775m12.125-.225-.8.5-1.75.55-13.75 5.65m-29.65 11.9-15.8 5.75m-8.95-.55 12.5-5.25 1.5-.45" style="stroke:#fff;stroke-width:.05;stroke-linejoin:round;stroke-linecap:round;fill:none;filter:url(#a)"/></g><g transform="translate(470.05 55.2)"><g filter="url(#b)"><path d="m651.95 414.55q4.5-.15 6.05-1.9-11.7.1-31.25-2.65-9.25-.15-11.75-.5-5.85-.25-21.05-1.55-13.45-1.15-21.35-1.25.55.2.15.35l-1.15.1-1.1.35q-.8 0-.6-.3.2-.25.9-.25l-2.05-.3q-8.55-.4-12.85-.3-1.8 0-2.7-.6l-7.25-.45q-2.25-.2-3.9-.05-.45.05-.5.25-.05.15-.4.2-.6-.05-.5-.25.3-.2.05-.25-1.4.2-3.95-.1l-4.35-.45-.65.2q-.4.1-.25.3-1.65-.5-5.45-.5-4 0-5.55-.4.65.65-.7.65h-2.45q-.9-.15-.5-.55-3.45 0-6.75-.5-.45 0-1.6.3-.85.2-1.8.05-.5-.35-3.5-.35l-1.55-.2q.2.35-.35.1l-9.15-.45q-8.45-.55-11.85-.1l-.4-.55q-2.65.1-9.25-.15-5.75-.2-9.05.15-2.45-.55-5.75-.75-3.95.65-4.5.85-.7 0-1.6-.6l-3.95-.65q-2.25-.35-3.65-.2-5.3.7-7.8.05l-1.7.4q-1 .2-.35.55-.45 0-.8-.3-.25-.25-.8-.05l.95-.6q-5.4-.4-15.45-.3-.8-.45-3.45-.45-3.25-.05-4.6-.3-.9.15-3.25 0-2.3-.2-3 0-6.35-.4-8.6-.7-.9-.1-1.8.1-.8.2-1.55.05l-1.7.05q-.8-.05-1.35.15l.9-.5q-.8-.15-2.8.15-1.55.2-2.2-.2-2.65-.35-3.05.35l-.4-.25q-.2-.15.25-.25-1.85-.1-2.7.15l.8.1-1.05.4q-.6.2-.5.6.9-.2 1.45-.15-.25.35-1.4.35-1.1 0-1.5-.35-.25-.2.4-.55.6-.25.1-.45l-3 .85.9.15q.4.2.2.45l1.25.25 2.95.2q1.75.2 3 .05l-.8-.55 2-.15q1.2-.1 1.9.25-.35.1-.3.3l.1.35q.95-.15 1-.15l-.5.65q.55-.5 2.15-.35l1.75.3q1.05.25.75-.05-.35-.4.25-.35.6.1.75.55.2.55.7.7l3.75-.05q2.55 0 3.9.45 2.65-.05 5.45-.5.8 0 .75.4-.05.25.75.15-.15.2.15.85.05-.1 1.4-.1 1.05-.05.35-.5 4 .5 7.35.45-.6.05-.75.35-.1.3.4.5.5-.2.65.1.25.5 1.35.65 0-.3 1.3-.15 1.35.1 1.45-.15l.85.05q-.7.45-2.5.4-1.75-.05-2.3-.4-.85.35 0 .4 1.1.1.95.45l4.5-.3q0-.35.35-.7 1.25-.4 2.1.1l.5.4.4.25-1 .1q.75.2 1.6.05 1.05-.1 1.65-.05.2.55-1.05.4-1.55-.1-1.8.15l1 .75q1.05.1 1.4-.2.2-.2 1.25.15l1.4-.15q.15-.95-1.45-.9.5-.55 1.15-.4 1.3.25 1.9.2.35-.25-.15-.25-.65 0-.65-.25-.15-.4 2.1-.5.95.05 1.1.4.2.5.35.6l-.9.05q-.6-.05-.5-.25-1.05.25-.5.8.55.55-.1.7.85.2 1.35 0l.9-.4q-.2-.05-.05-.35.15-.3 0-.4 1.45-.75 2.1.05.9 1 2 .95-.2-.45.7-.25l1.25.3.35.7q.25.1.65-.8-.6.5.3-.4l2.9 1.2q.65-.1.5-.4-.1-.25.65-.3-.4.2.1.45l.85.2q-.78613281-.21015625-.25-.6l1.25-.4q.9.05 1.7.4.4.15.5.45l-1.1.4q.3-.1.5.05.25.2.7.15l1.3-1.3q.5-.05 1.1.15l.65.15-1.4.35q.9-.05 1.1.45.15.45 1.1.4l.8-.1q.65-.35 1.75.1l1.25-.4q.85-.2 1.4.25-.4-.45-.85-.4-.8.1-1.35-.05-.5-.4.4-.5l1.2-.05q-.05.5 1.05.4l1.85-.2 1.3.7.4-.55q.15.6 1.15.4 1.3-.3 1.7-.15-.4.25-.35.5.05.3.6.45-.55-.5.45-.9 1.05-.4.95-.6 1.05.2.5.7-.7.65-.5.9.45-.25 1.45-.05.95.2 1.3-.2-.8-.2-.35-.45l.85-.4q.9.1.65.25-.3.3.25.45.65-.1 1-.4.35-.35-.4-.55.35.05 1.55-.1 1.05-.15 1.65.15.25.3-.8.35-.95 0-.65.2 1.2.1 1.8-.55.6-.7 1.65-.7-.65-.25-.2-.75.4-.5 1.3-.7.6.1.85.2-.15.1-.4.15-1.1.25-.65.6l1-.05q.65.5-.85 1.1-1.45.6-.85 1l1.05-.25q-.65.65-.2.95.2-.35 1.6-.25l8.95.55q6.35.25 10.05-.7.29335938.24453125 4.05 1.05-.34179687-.09160156-.05-.3l.85-.2 1.05.65q.75.25 2.2.15 1.75-.1 2.35 0 .7.25 1.1 0l.6-.4.9.05q2.8-.35 2.55.7.9-.2.35-.45 1.75.7 6.4.5-.85-.15-.95-.85.2-.35.45-.25.45.2.9 0l.35.45q.15.2-.45.3 1.65.65 4.8.75l5.35.15.85-.35q1.2.45 4.55.45l6.7.25q1.2-.2 1.85.05 1.6-.6 2.85-.05l2.45.5q.2-.25 1-.25h6.1q.6-.4 3.6-.2 3.15.2 3.7 0 .9.2 2.7-.05 1.45-.25 1.8.1 3.4-.1 3.7-.7.45.3-.15.8l9.05.2q5.6.2 8.4.1 1.4-.25 4.85.15 2.85.35 4.2-.3l.9-.55q.4.15.7.45l.55.45q.4-.2 1.8-.1l1.45.1q.65.1 2.3-.15 1.4-.15 1.9.1 15.45 2.85 23.1 1.65.95-.05 1.05.35.15.4.4.4 2.75-.3 10 .25 6.5.5 9.65-.25m-211.95-8.25.3-.45.55.05z" fill="#8f8f8c"/></g><path d="m542.05 411.5-6.7-.25m-48.25-1.7-8.95-.55m14-5.7 9.15.45m44.65 1.55 7.25.45" style="stroke:#fff;stroke-width:.05;stroke-linejoin:round;stroke-linecap:round;fill:none;filter:url(#b)"/></g><g transform="translate(-325.85 -.8)"><g filter="url(#c)"><path d="m659.05 389.25q1.05-.15 1.2.3.15.45.4.4 2.95-.5 10.75-.3 7 .15 10.35-.8 4.85-.45 6.35-2.4-12.4.8-33.7-1.05-9.85.4-12.55.15-6.1.05-22.75-.5-14.4-.5-22.95-.15.6.2.15.4l-1.2.1-1.2.5q-.85.05-.65-.3.2-.3.95-.35l-2.05-.05h-3.9l-1-.1-9.05.35q-1.75.05-7.3-.35-4.8-.4-7.65-.05-.5.1-.55.3-.05.2-.4.25-.7-.05-.55-.25.25-.25.05-.3-1.45.3-4.2.15l-4.7-.25-.75.25q-.4.15-.2.35-1.35-.35-3.1-.35l-11.7.15q-.0921875.02421875-.2.05h-.1l-.7.1q-3.85.2-7.25-.15l-1.7.4q-.9.25-1.9.15-.65-.4-2.5-.3-2.3.1-2.95 0 .35.5-.95.8-1.25.35-2.55.1l.5-.9q-2.15.25-9.6.15-6.75-.1-10.35.55l-.5-.55q-2.7.25-9.9.35-6.2.1-9.75.7-2.9-.5-6.2-.5-4.1.85-4.8 1.2-.75.05-1.7-.6l-4.3-.45q-2.5-.3-3.95-.05-5.25 1.15-8.35.55l-1.8.5q-1.05.25-.35.6-.45.05-.85-.3-.3-.25-.9 0l1-.65q-5.4-.15-16.6.55-.9-.45-3.75-.3-3.5.15-4.95-.05-.9.2-3.5.15-2.4-.1-3.2.2l-9.25-.3q-.95-.05-1.9.2-.85.25-1.7.15-1.05.2-1.75.65l-1 .8-1.35-.15q-.7.05-1.35-.15 1.75-.35 3.15-1.35-.85-.1-3 .3-1.7.35-2.4-.05-2.8-.25-3.2.5l-.45-.25q-.25-.15.25-.25-1.95 0-2.9.3l.9.1-1.15.45q-.65.25-.5.7.95-.3 1.55-.25-.25.35-1.45.4-1.25.1-1.65-.2-.3-.25.4-.65.6-.35.05-.5l-3.15 1.1 1 .05q.4.2.2.5l1.35.2q1-.1 3.2.05 1.9.1 3.25-.1l-.95-.55q.2 0 2.15-.3 1.3-.15 2.05.2-.4.1-.35.35l.2.35.5-.15.55-.05-.5.7q.55-.55 2.3-.45l1.9.2q1.1.2.75-.15-.4-.4.3-.4.65.1.85.6.2.55.75.75l4.05-.3q2.75-.15 4.2.25 3.15-.25 5.8-.85.85 0 .8.4 0 .3.85.1-.15.2.2.9.05-.1 1.55-.2 1.1-.05.3-.5 4.72207031.29824219 7.85.05-.5546875.059375-.7.35-.15.35.4.55 2.1-.95 5.6-.7 0-.25-.4-.6-.3-.25-.15-.55l1.4-.3.5 1q.45.5 1.7.55-.25.45-1.75.4-1.15-.05-.7.4-.65.55-2.65.6-1.95.1-2.6-.25-.45.2-.55.35.25.05.55.05 1.2.05 1.05.45l4.8-.6q.05-.2-.25-.4.05-.2.6-.35 1.35-.5 2.25-.05l1.05.65-1.1.2q.8.15 1.7 0 1.15-.2 1.8-.2.2.55-1.15.5-1.65-.05-1.9.25l1.15.75q1.15.05 1.5-.3.2-.25 1.3.1l1.5-.25q.15-1.05-1.6-.9.5-.55 1.2-.5 1.35.2 2.05.15.35-.3-.15-.25-.7 0-.75-.25-.15-.4 2.25-.65 1 0 1.2.35.25.55.4.65l-.95.1q-.65 0-.55-.25-1.15.3-.5.85.6.55-.05.75.95.2 1.5-.05l.85-.5q-.25-.05-.1-.3.15-.35 0-.45 1.5-.85 2.3-.05 1 1.05 2.2.9-.25-.4 1.35-1.2 1.35-.7.25-1.3 1.5-.45 2.15-.35-.35.35.2.6.4.25-.25.6h.95l-1.45.85 3.45 1.25q.7-.15.5-.45-.15-.3.7-.4-.4.25.1.45l.9.15q-.75-.15-.3-.55l1.35-.55q1 0 1.8.35.45.15.6.45l-1.15.5q.35-.1.55.05.25.2.75.1l1.3-1.45q.55-.1 1.2.1l.7.15-1.45.4q.95-.1 1.15.45.25.5 1.25.35l.85-.15q.8-.45 1.9.05l1.35-.55q.85-.25 1.45.2-.4-.45-.95-.35-.85.15-1.45 0-.5-.4.45-.55l1.3-.15q-.05.55 1.15.35l1.95-.25 1.4.65.4-.6q.2.65 1.25.35 1.4-.4 1.85-.25-.45.25-.35.55.05.3.65.45-.6-.5.45-.95 1.1-.5.95-.75 1.1.15.6.75-.7.75-.45 1 .5-.35 1.55-.15 1 .15 1.35-.3-.85-.15-.4-.4l.9-.55q.95 0 .7.25-.3.3.3.45.65-.1 1-.45.4-.45-.35-.6.45.1 1.6-.2 1.15-.2 1.8.1.25.3-.85.4-1 .05-.7.25 1.3 0 1.9-.7.6-.75 1.75-.85-.75-.2-.25-.8.4-.5 1.35-.8.65.05.95.15-.2.15-.4.2-1.2.35-.7.7l1.05-.1q.75.5-.85 1.25-1.55.7-.85 1.1l1.1-.35q-.6.75-.15 1.05.2-.4 1.45-.4l1.4.05q.15-.3-.35-.2-.45.15-.35-.05.25-.05 1.55-.55.9-.4 2-.2-.55.2-.2.55.35.4.2.55.4.1.6-.2.15-.2.8.15 10.35.2 14.95-1.35l3.1.55h2l.45-.05-.15.05 11.9-.05q2.3.65 6.8.15-.9-.15-1.05-.85.2-.4.5-.3.45.2.9 0l.4.4q.2.25-.45.4 1.75.6 5.2.45 5-.15 5.75-.1.15 0 .9-.45 1.35.45 3.85.3 3-.15 4 0-.45-.25.1-.75.6-.5 1.6-.5.85-.35 1.05.25.35.85.95 1.05 1.4-.6 2.55-.25 1.75-.75 3.05-.2l2.7.4q.2-.25 1-.35l2-.1 6.65-.3.55-.35q4.75 0 5.2-.2 1 .2 2.9-.2 1.6-.35 1.95-.05 3.65-.2 3.95-.9.45.3-.1.85l9.7-.35q5.85-.2 9.2-.7.2.05-.2.35 1.45-.3 5.2-.05 3.1.2 4.55-.6l.9-.6 1.4.85q.3-.2 1.9-.25 1.5-.1 1.7-.4.2.1.05.3l-.2.2q.7.05 2.5-.25 1.45-.3 2-.05 16.7 2.2 24.9.5z" fill="#8f8f8c"/></g><path d="m581 391.15-6.65.3m-41.8.45-11.9.05h-.275-2.025m18.5-6.55.325-.05 11.675-.15m38.4-.1 1 .1h3.9" style="stroke:#fff;stroke-width:.05;stroke-linejoin:round;stroke-linecap:round;fill:none;filter:url(#c)"/></g></svg>